<svg width="14" height="14" viewBox="0 0 14 14" fill="none" xmlns="http://www.w3.org/2000/svg">
<g id="Edit">
<path id="Fill 1" opacity="0.4" d="M12.995 12.2148H8.72432C8.30764 12.2148 7.96875 12.5591 7.96875 12.9824C7.96875 13.4065 8.30764 13.7499 8.72432 13.7499H12.995C13.4117 13.7499 13.7506 13.4065 13.7506 12.9824C13.7506 12.5591 13.4117 12.2148 12.995 12.2148Z" fill="#838B9D"/>
<path id="Fill 3" d="M5.73177 3.17795L9.77866 6.44802C9.87628 6.52622 9.89295 6.66973 9.81676 6.7697L5.01906 13.0212C4.71746 13.4074 4.27301 13.6259 3.79681 13.6339L1.17772 13.6662C1.03804 13.6678 0.915811 13.5711 0.884064 13.4324L0.288816 10.8444C0.18564 10.3687 0.288816 9.87691 0.590409 9.49798L5.41192 3.21665C5.4897 3.11587 5.63335 3.09813 5.73177 3.17795Z" fill="#838B9D"/>
<path id="Fill 5" opacity="0.4" d="M11.59 4.49908L10.8098 5.473C10.7312 5.57217 10.59 5.5883 10.4923 5.50928C9.54391 4.74175 7.1153 2.77214 6.44148 2.22632C6.34306 2.14569 6.32957 2.00219 6.40893 1.90221L7.16133 0.967793C7.84388 0.0890025 9.03438 0.00837955 9.99471 0.774298L11.0979 1.65309C11.5503 2.00783 11.8519 2.47544 11.9551 2.96724C12.0741 3.50822 11.9471 4.03953 11.59 4.49908Z" fill="#838B9D"/>
</g>
</svg>
